#!OML:ASF F:\VICON\USERDATA\Patient Classification 1\PLAYGROUND\JustinFriday\JustinFriday.ASF
:FULLY-SPECIFIED
:DEGREES
2618
root 13.5627 20.9789 28.2449 -195.165 -174.772 -185.055
lowerback 19.1683 3.98973 7.08374
upperback 0.504852 7.08349 2.39079
thorax -9.63392 3.10331 -3.25991
lowerneck 0.115302 -4.61766 -4.89843
upperneck 23.2449 -6.16065 0.798605
head 7.28398 -3.28416 0.703807
rclavicle -1.14922e-015 -4.96962e-016
rhumerus 112.27 -14.2607 -65.3922
rradius 20.0512
rwrist 28.3565
rhand -20.0619 -17.156
rfingers 7.12502
rthumb 6.28002 -47.0429
lclavicle -1.14922e-015 -4.96962e-016
lhumerus 110.476 7.67638 67.377
lradius 21.1763
lwrist -28.2627
lhand -13.7363 4.3544
lfingers 7.12502
lthumb 12.3834 33.9676
rfemur 23.6772 -0.128981 30.4441
rtibia 38.2571
rfoot 11.0588 -13.0448
rtoes 5.36253
lfemur -48.5314 0.0531255 -3.52532
ltibia 28.1717
lfoot -3.02381 19.5499
ltoes 53.0019
2619
root 13.5771 20.9918 28.2305 -195.219 -174.263 -184.945
lowerback 19.3185 3.88639 6.6407
upperback 0.386697 6.88981 2.55073
thorax -9.94132 3.01789 -2.8152
lowerneck 0.109296 -4.27895 -5.22717
upperneck 23.6898 -5.74392 1.11932
head 7.43922 -3.09055 0.886508
rclavicle 9.07825e-014 6.16232e-015
rhumerus 111.734 -14.3938 -64.1866
rradius 20.1482
rwrist 26.5762
rhand -19.409 -16.8178
rfingers 7.12502
rthumb 6.91031 -46.685
lclavicle 9.07825e-014 6.16232e-015
lhumerus 110.029 8.64787 66.5038
lradius 20.5753
lwrist -27.8506
lhand -13.9453 4.10402
lfingers 7.12502
lthumb 12.1819 33.7293
rfemur 22.9332 0.409803 30.7235
rtibia 40.2688
rfoot 10.5055 -12.3088
rtoes 3.91984
lfemur -47.9533 1.00942 -3.92539
ltibia 27.6801
lfoot -2.29864 19.5812
ltoes 53.2753
2620
root 13.596 20.995 28.2257 -195.364 -173.8 -184.738
lowerback 19.2953 3.80159 6.43409
upperback 0.457648 6.71767 2.48825
thorax -9.87803 2.94886 -2.72041
lowerneck 0.217769 -4.13444 -5.84348
upperneck 23.6274 -5.69641 2.0041
head 7.44179 -3.05186 1.28453
rclavicle -4.07384e-014 1.16289e-014
rhumerus 111.541 -14.5854 -63.7843
rradius 20.106
rwrist 25.867
rhand -18.4099 -16.3734
rfingers 7.12502
rthumb 7.87471 -46.2068
lclavicle -4.07384e-014 1.16289e-014
lhumerus 109.686 9.90424 64.622
lradius 19.9988
lwrist -26.3985
lhand -14.1107 3.16559
lfingers 7.12502
lthumb 12.0223 32.8003
rfemur 22.2442 0.813622 30.7589
rtibia 42.2772
rfoot 9.8806 -11.8686
rtoes 4.99453
lfemur -47.4467 0.114518 -2.93788
ltibia 27.1165
lfoot -4.34244 19.903
ltoes 53.3785
2621
root 13.6239 21.0101 28.2303 -195.54 -173.367 -184.542
lowerback 19.0465 3.68108 6.41463
upperback 0.634701 6.50892 2.39178
thorax -9.5477 2.86777 -2.7325
lowerneck -0.249643 -3.93269 -5.54852
upperneck 24.2079 -5.37445 1.76338
head 7.68784 -2.89309 1.16509
rclavicle 6.54126e-014 1.78906e-014
rhumerus 111.33 -14.6785 -63.6261
rradius 20.4248
rwrist 25.5226
rhand -17.3721 -16.2117
rfingers 7.12502
rthumb 8.87632 -46.005
lclavicle 6.54126e-014 1.78906e-014
lhumerus 109.449 10.3138 64.2414
lradius 20.0019
lwrist -26.6282
lhand -14.6259 4.23605
lfingers 7.12502
lthumb 11.5255 33.8992
rfemur 21.6313 1.05667 30.6694
rtibia 44.2474
rfoot 9.22002 -10.8481
rtoes 3.19545
lfemur -46.8628 -0.119088 -2.67663
ltibia 26.7778
lfoot -5.40771 19.9521
ltoes 53.5176
2622
root 13.6531 21.0268 28.2263 -195.671 -172.727 -184.794
lowerback 19.0655 3.53891 6.94813
upperback 0.682458 6.43034 2.362
thorax -9.45018 2.81034 -3.03833
lowerneck -0.120231 -3.79143 -5.87707
upperneck 24.1066 -5.30879 2.43551
head 7.65405 -2.83764 1.44965
rclavicle -3.07744e-014 -2.74323e-014
rhumerus 110.706 -15.1548 -62.7197
rradius 20.8299
rwrist 23.9709
rhand -16.9183 -16.3727
rfingers 7.12502
rthumb 9.3142 -46.1469
lclavicle -3.07744e-014 -2.74323e-014
lhumerus 109.457 8.85702 66.5036
lradius 20.3578
lwrist -29.9786
lhand -14.5589 4.31463
lfingers 7.12502
lthumb 11.5902 33.9741
rfemur 20.8379 1.34937 31.1843
rtibia 46.2422
rfoot 9.01842 -9.77027
rtoes -1.36266
lfemur -46.1866 0.216378 -2.30416
ltibia 26.457
lfoot -5.80672 19.9569
ltoes 53.6288
2623
root 13.6805 21.0237 28.2165 -195.949 -172.086 -184.961
lowerback 19.4464 3.38245 6.75368
upperback 0.683148 6.25165 2.71008
thorax -9.74129 2.72684 -2.53991
lowerneck -0.177387 -3.49782 -6.15887
upperneck 24.3288 -4.89099 2.45719
head 7.72815 -2.66423 1.53223
rclavicle 4.46769e-014 4.17448e-015
rhumerus 109.879 -15.6049 -60.3029
rradius 21.2622
rwrist 20.0834
rhand -17.0821 -17.1505
rfingers 7.12502
rthumb 9.1561 -46.9317
lclavicle 4.46769e-014 4.17448e-015
lhumerus 108.975 9.97139 66.1586
lradius 20.6108
lwrist -29.9258
lhand -14.1099 4.52201
lfingers 7.12502
lthumb 12.0232 34.1567
rfemur 20.0047 1.55473 31.5621
rtibia 48.3339
rfoot 8.23693 -9.2878
rtoes -3.89154
lfemur -45.7431 1.98304 -2.78618
ltibia 26.3137
lfoot -4.27084 19.2808
ltoes 53.5911
